<mxfile host="app.diagrams.net" modified="2023-02-13T11:59:40.041Z" agent="5.0 (Windows)" etag="eqhmGDv7djppIUj_2OrB" version="20.8.20" type="github">
  <diagram name="Leht-1" id="lmP1mCz-0FxSe3oaMY87">
    <mxGraphModel dx="2074" dy="1152" grid="1" gridSize="10" guides="1" tooltips="1" connect="1" arrows="1" fold="1" page="1" pageScale="1" pageWidth="827" pageHeight="1169" math="0" shadow="0">
      <root>
        <mxCell id="0" />
        <mxCell id="1" parent="0" />
        <mxCell id="HhL2PiNIDcqk27zspqj_-1" style="edgeStyle=orthogonalEdgeStyle;rounded=0;orthogonalLoop=1;jettySize=auto;html=1;entryX=0.5;entryY=0;entryDx=0;entryDy=0;" edge="1" parent="1" source="HhL2PiNIDcqk27zspqj_-2">
          <mxGeometry relative="1" as="geometry">
            <mxPoint x="414" y="330" as="targetPoint" />
          </mxGeometry>
        </mxCell>
        <mxCell id="HhL2PiNIDcqk27zspqj_-2" value="START" style="ellipse;whiteSpace=wrap;html=1;" vertex="1" parent="1">
          <mxGeometry x="349" y="210" width="130" height="80" as="geometry" />
        </mxCell>
        <mxCell id="HhL2PiNIDcqk27zspqj_-3" value="END" style="ellipse;whiteSpace=wrap;html=1;" vertex="1" parent="1">
          <mxGeometry x="250" y="650" width="130" height="80" as="geometry" />
        </mxCell>
        <mxCell id="HhL2PiNIDcqk27zspqj_-4" style="edgeStyle=orthogonalEdgeStyle;rounded=0;orthogonalLoop=1;jettySize=auto;html=1;entryX=0.5;entryY=0;entryDx=0;entryDy=0;" edge="1" parent="1" source="HhL2PiNIDcqk27zspqj_-5" target="HhL2PiNIDcqk27zspqj_-10">
          <mxGeometry relative="1" as="geometry" />
        </mxCell>
        <mxCell id="HhL2PiNIDcqk27zspqj_-5" value="List&amp;lt;string&amp;gt; nameList = new List&amp;lt;string&amp;gt;() { &quot;Anton Tammsaare&quot;, &quot;Lydia Koidula&quot;, &quot;August Gailit&quot;, &quot;Betti Alver&quot; };" style="whiteSpace=wrap;html=1;" vertex="1" parent="1">
          <mxGeometry x="314" y="330" width="200" height="60" as="geometry" />
        </mxCell>
        <mxCell id="HhL2PiNIDcqk27zspqj_-6" style="edgeStyle=orthogonalEdgeStyle;rounded=0;orthogonalLoop=1;jettySize=auto;html=1;entryX=0;entryY=0.5;entryDx=0;entryDy=0;" edge="1" parent="1" source="HhL2PiNIDcqk27zspqj_-8" target="HhL2PiNIDcqk27zspqj_-5">
          <mxGeometry relative="1" as="geometry">
            <Array as="points">
              <mxPoint x="270" y="585" />
              <mxPoint x="270" y="360" />
            </Array>
          </mxGeometry>
        </mxCell>
        <mxCell id="HhL2PiNIDcqk27zspqj_-7" style="edgeStyle=orthogonalEdgeStyle;rounded=0;orthogonalLoop=1;jettySize=auto;html=1;entryX=0.5;entryY=0;entryDx=0;entryDy=0;exitX=1;exitY=0.5;exitDx=0;exitDy=0;" edge="1" parent="1" source="HhL2PiNIDcqk27zspqj_-8" target="HhL2PiNIDcqk27zspqj_-12">
          <mxGeometry relative="1" as="geometry" />
        </mxCell>
        <mxCell id="HhL2PiNIDcqk27zspqj_-8" value="&lt;div&gt;{&lt;br&gt;&lt;/div&gt;&lt;div&gt;Console.WriteLine(name);&lt;/div&gt;&lt;div&gt;}&lt;br&gt;&lt;/div&gt;" style="rounded=1;whiteSpace=wrap;html=1;align=left;" vertex="1" parent="1">
          <mxGeometry x="339" y="555" width="150" height="60" as="geometry" />
        </mxCell>
        <mxCell id="HhL2PiNIDcqk27zspqj_-9" style="edgeStyle=orthogonalEdgeStyle;rounded=0;orthogonalLoop=1;jettySize=auto;html=1;entryX=0.5;entryY=0;entryDx=0;entryDy=0;" edge="1" parent="1" source="HhL2PiNIDcqk27zspqj_-10" target="HhL2PiNIDcqk27zspqj_-8">
          <mxGeometry relative="1" as="geometry" />
        </mxCell>
        <mxCell id="HhL2PiNIDcqk27zspqj_-10" value="foreach (string name in nameList)" style="rhombus;whiteSpace=wrap;html=1;" vertex="1" parent="1">
          <mxGeometry x="344" y="430" width="140" height="80" as="geometry" />
        </mxCell>
        <mxCell id="HhL2PiNIDcqk27zspqj_-11" style="edgeStyle=orthogonalEdgeStyle;rounded=0;orthogonalLoop=1;jettySize=auto;html=1;entryX=1;entryY=0.5;entryDx=0;entryDy=0;" edge="1" parent="1" source="HhL2PiNIDcqk27zspqj_-12" target="HhL2PiNIDcqk27zspqj_-3">
          <mxGeometry relative="1" as="geometry" />
        </mxCell>
        <mxCell id="HhL2PiNIDcqk27zspqj_-12" value="Console.WriteLine(&quot;Vajuta &#39;Enter&#39; et lahkuda..&quot;)" style="whiteSpace=wrap;html=1;" vertex="1" parent="1">
          <mxGeometry x="430" y="660" width="160" height="60" as="geometry" />
        </mxCell>
      </root>
    </mxGraphModel>
  </diagram>
</mxfile>
